<mxfile host="app.diagrams.net" modified="2021-11-19T01:30:22.883Z" agent="5.0 (Windows NT 10.0; Win64; x64) AppleWebKit/537.36 (KHTML, like Gecko) Chrome/95.0.4638.69 Safari/537.36" etag="_DbDUjc86XAMKDdZdM33" version="15.8.2" type="github">
  <diagram id="DN2LglZzHcZhdb8wmJYU" name="Page-1">
    <mxGraphModel dx="1065" dy="456" grid="1" gridSize="10" guides="1" tooltips="1" connect="1" arrows="1" fold="1" page="1" pageScale="1" pageWidth="827" pageHeight="1169" math="0" shadow="0">
      <root>
        <mxCell id="0" />
        <mxCell id="1" parent="0" />
        <mxCell id="abK9-RNhzucmv1NQsEdF-14" style="edgeStyle=orthogonalEdgeStyle;rounded=0;orthogonalLoop=1;jettySize=auto;html=1;exitX=0.5;exitY=1;exitDx=0;exitDy=0;entryX=0.5;entryY=0;entryDx=0;entryDy=0;entryPerimeter=0;" parent="1" source="abK9-RNhzucmv1NQsEdF-3" target="abK9-RNhzucmv1NQsEdF-7" edge="1">
          <mxGeometry relative="1" as="geometry" />
        </mxCell>
        <mxCell id="abK9-RNhzucmv1NQsEdF-3" value="Program Arguments" style="shape=parallelogram;html=1;strokeWidth=2;perimeter=parallelogramPerimeter;whiteSpace=wrap;rounded=1;arcSize=12;size=0.23;" parent="1" vertex="1">
          <mxGeometry x="260" y="30" width="100" height="60" as="geometry" />
        </mxCell>
        <mxCell id="abK9-RNhzucmv1NQsEdF-16" style="edgeStyle=orthogonalEdgeStyle;rounded=0;orthogonalLoop=1;jettySize=auto;html=1;exitX=0.5;exitY=1;exitDx=0;exitDy=0;entryX=0.5;entryY=0;entryDx=0;entryDy=0;entryPerimeter=0;" parent="1" source="abK9-RNhzucmv1NQsEdF-4" target="abK9-RNhzucmv1NQsEdF-15" edge="1">
          <mxGeometry relative="1" as="geometry" />
        </mxCell>
        <mxCell id="abK9-RNhzucmv1NQsEdF-4" value="Display Instructions" style="rounded=1;whiteSpace=wrap;html=1;absoluteArcSize=1;arcSize=14;strokeWidth=2;" parent="1" vertex="1">
          <mxGeometry x="90" y="185.5" width="90" height="50" as="geometry" />
        </mxCell>
        <mxCell id="abK9-RNhzucmv1NQsEdF-18" style="edgeStyle=orthogonalEdgeStyle;rounded=0;orthogonalLoop=1;jettySize=auto;html=1;exitX=0.5;exitY=1;exitDx=0;exitDy=0;entryX=0.5;entryY=0;entryDx=0;entryDy=0;" parent="1" source="abK9-RNhzucmv1NQsEdF-5" target="abK9-RNhzucmv1NQsEdF-17" edge="1">
          <mxGeometry relative="1" as="geometry">
            <Array as="points">
              <mxPoint x="305" y="320" />
              <mxPoint x="205" y="320" />
            </Array>
          </mxGeometry>
        </mxCell>
        <mxCell id="abK9-RNhzucmv1NQsEdF-5" value="Input Batch file Waves &lt;br&gt;(File: Every line declares a wave)" style="rounded=1;whiteSpace=wrap;html=1;absoluteArcSize=1;arcSize=14;strokeWidth=2;" parent="1" vertex="1">
          <mxGeometry x="250" y="230" width="110" height="70" as="geometry" />
        </mxCell>
        <mxCell id="wyxHeaVbBhEu2jxiolBO-11" value="" style="edgeStyle=orthogonalEdgeStyle;rounded=0;orthogonalLoop=1;jettySize=auto;html=1;entryX=0.5;entryY=0;entryDx=0;entryDy=0;" edge="1" parent="1" source="abK9-RNhzucmv1NQsEdF-6" target="wyxHeaVbBhEu2jxiolBO-7">
          <mxGeometry relative="1" as="geometry" />
        </mxCell>
        <mxCell id="abK9-RNhzucmv1NQsEdF-6" value="Initialise the Wave Based on the Parameters" style="rounded=1;whiteSpace=wrap;html=1;absoluteArcSize=1;arcSize=14;strokeWidth=2;" parent="1" vertex="1">
          <mxGeometry x="414" y="245.5" width="120" height="60" as="geometry" />
        </mxCell>
        <mxCell id="abK9-RNhzucmv1NQsEdF-8" style="edgeStyle=orthogonalEdgeStyle;rounded=0;orthogonalLoop=1;jettySize=auto;html=1;exitX=0;exitY=0.5;exitDx=0;exitDy=0;exitPerimeter=0;entryX=0.5;entryY=0;entryDx=0;entryDy=0;" parent="1" source="abK9-RNhzucmv1NQsEdF-7" target="abK9-RNhzucmv1NQsEdF-4" edge="1">
          <mxGeometry relative="1" as="geometry" />
        </mxCell>
        <mxCell id="abK9-RNhzucmv1NQsEdF-11" value="--h" style="edgeLabel;html=1;align=center;verticalAlign=middle;resizable=0;points=[];" parent="abK9-RNhzucmv1NQsEdF-8" vertex="1" connectable="0">
          <mxGeometry x="0.0102" y="-3" relative="1" as="geometry">
            <mxPoint x="3" y="23" as="offset" />
          </mxGeometry>
        </mxCell>
        <mxCell id="abK9-RNhzucmv1NQsEdF-9" style="edgeStyle=orthogonalEdgeStyle;rounded=0;orthogonalLoop=1;jettySize=auto;html=1;exitX=0.5;exitY=1;exitDx=0;exitDy=0;exitPerimeter=0;entryX=0.5;entryY=0;entryDx=0;entryDy=0;" parent="1" source="abK9-RNhzucmv1NQsEdF-7" target="abK9-RNhzucmv1NQsEdF-5" edge="1">
          <mxGeometry relative="1" as="geometry" />
        </mxCell>
        <mxCell id="abK9-RNhzucmv1NQsEdF-12" value="--fp = path_to_the_file" style="edgeLabel;html=1;align=center;verticalAlign=middle;resizable=0;points=[];" parent="abK9-RNhzucmv1NQsEdF-9" vertex="1" connectable="0">
          <mxGeometry x="-0.1778" relative="1" as="geometry">
            <mxPoint y="2" as="offset" />
          </mxGeometry>
        </mxCell>
        <mxCell id="abK9-RNhzucmv1NQsEdF-10" style="edgeStyle=orthogonalEdgeStyle;rounded=0;orthogonalLoop=1;jettySize=auto;html=1;exitX=1;exitY=0.5;exitDx=0;exitDy=0;exitPerimeter=0;entryX=0.5;entryY=0;entryDx=0;entryDy=0;" parent="1" source="abK9-RNhzucmv1NQsEdF-7" target="abK9-RNhzucmv1NQsEdF-6" edge="1">
          <mxGeometry relative="1" as="geometry" />
        </mxCell>
        <mxCell id="abK9-RNhzucmv1NQsEdF-13" value="--w=wave_form&lt;br&gt;--a=wave_amplitude&lt;br&gt;--f=wave_frequency&lt;br&gt;--d=wave_duty_cycle" style="edgeLabel;html=1;align=center;verticalAlign=middle;resizable=0;points=[];" parent="abK9-RNhzucmv1NQsEdF-10" vertex="1" connectable="0">
          <mxGeometry x="0.1536" y="-1" relative="1" as="geometry">
            <mxPoint x="1" y="11" as="offset" />
          </mxGeometry>
        </mxCell>
        <mxCell id="abK9-RNhzucmv1NQsEdF-7" value="Actions Based on Program Arguments" style="strokeWidth=2;html=1;shape=mxgraph.flowchart.decision;whiteSpace=wrap;" parent="1" vertex="1">
          <mxGeometry x="157.5" y="110" width="295" height="70" as="geometry" />
        </mxCell>
        <mxCell id="abK9-RNhzucmv1NQsEdF-15" value="End of Program" style="strokeWidth=2;html=1;shape=mxgraph.flowchart.terminator;whiteSpace=wrap;" parent="1" vertex="1">
          <mxGeometry x="85" y="265.5" width="100" height="40" as="geometry" />
        </mxCell>
        <mxCell id="abK9-RNhzucmv1NQsEdF-17" value="Return Wave Count to Main" style="shape=parallelogram;html=1;strokeWidth=2;perimeter=parallelogramPerimeter;whiteSpace=wrap;rounded=1;arcSize=12;size=0.23;" parent="1" vertex="1">
          <mxGeometry x="90" y="379" width="230" height="40" as="geometry" />
        </mxCell>
        <mxCell id="wyxHeaVbBhEu2jxiolBO-4" style="edgeStyle=orthogonalEdgeStyle;rounded=0;orthogonalLoop=1;jettySize=auto;html=1;exitX=0.13;exitY=0.59;exitDx=0;exitDy=0;entryX=0.75;entryY=0;entryDx=0;entryDy=0;startArrow=none;exitPerimeter=0;" edge="1" parent="1" source="wyxHeaVbBhEu2jxiolBO-7" target="abK9-RNhzucmv1NQsEdF-17">
          <mxGeometry relative="1" as="geometry">
            <mxPoint x="422.5" y="301" as="sourcePoint" />
            <mxPoint x="422.48" y="449.5200000000001" as="targetPoint" />
          </mxGeometry>
        </mxCell>
        <mxCell id="wyxHeaVbBhEu2jxiolBO-5" value="Yes" style="edgeLabel;html=1;align=center;verticalAlign=middle;resizable=0;points=[];" vertex="1" connectable="0" parent="wyxHeaVbBhEu2jxiolBO-4">
          <mxGeometry x="-0.3638" y="-4" relative="1" as="geometry">
            <mxPoint x="9" y="6" as="offset" />
          </mxGeometry>
        </mxCell>
        <mxCell id="wyxHeaVbBhEu2jxiolBO-6" style="edgeStyle=orthogonalEdgeStyle;rounded=0;orthogonalLoop=1;jettySize=auto;html=1;exitX=1;exitY=1;exitDx=0;exitDy=0;entryX=1;entryY=0.5;entryDx=0;entryDy=0;" edge="1" parent="1" source="wyxHeaVbBhEu2jxiolBO-7" target="wyxHeaVbBhEu2jxiolBO-9">
          <mxGeometry relative="1" as="geometry">
            <Array as="points">
              <mxPoint x="518" y="400" />
              <mxPoint x="484" y="400" />
            </Array>
          </mxGeometry>
        </mxCell>
        <mxCell id="wyxHeaVbBhEu2jxiolBO-7" value="Is wave fully defined?" style="rhombus;whiteSpace=wrap;html=1;" vertex="1" parent="1">
          <mxGeometry x="387" y="313" width="175" height="50" as="geometry" />
        </mxCell>
        <mxCell id="wyxHeaVbBhEu2jxiolBO-8" style="edgeStyle=orthogonalEdgeStyle;rounded=0;orthogonalLoop=1;jettySize=auto;html=1;exitX=0;exitY=1;exitDx=0;exitDy=0;entryX=0.921;entryY=0.428;entryDx=0;entryDy=0;entryPerimeter=0;" edge="1" parent="1" source="wyxHeaVbBhEu2jxiolBO-9" target="abK9-RNhzucmv1NQsEdF-17">
          <mxGeometry relative="1" as="geometry">
            <mxPoint x="470" y="419" as="targetPoint" />
          </mxGeometry>
        </mxCell>
        <mxCell id="wyxHeaVbBhEu2jxiolBO-9" value="Auto-fill up undefined parameters" style="ellipse;whiteSpace=wrap;html=1;" vertex="1" parent="1">
          <mxGeometry x="343" y="361" width="141" height="40" as="geometry" />
        </mxCell>
        <mxCell id="wyxHeaVbBhEu2jxiolBO-10" value="No" style="edgeLabel;html=1;align=center;verticalAlign=middle;resizable=0;points=[];" vertex="1" connectable="0" parent="1">
          <mxGeometry x="414.00498708085104" y="430.00414461715746" as="geometry">
            <mxPoint x="105" y="-57" as="offset" />
          </mxGeometry>
        </mxCell>
        <mxCell id="wyxHeaVbBhEu2jxiolBO-15" style="edgeStyle=orthogonalEdgeStyle;rounded=0;orthogonalLoop=1;jettySize=auto;html=1;exitX=0.744;exitY=0.219;exitDx=0;exitDy=0;exitPerimeter=0;entryX=0.5;entryY=0;entryDx=0;entryDy=0;" edge="1" parent="1" source="abK9-RNhzucmv1NQsEdF-7" target="wyxHeaVbBhEu2jxiolBO-18">
          <mxGeometry relative="1" as="geometry">
            <mxPoint x="610" y="79.5" as="sourcePoint" />
            <mxPoint x="530" y="125" as="targetPoint" />
            <Array as="points">
              <mxPoint x="588" y="125" />
            </Array>
          </mxGeometry>
        </mxCell>
        <mxCell id="wyxHeaVbBhEu2jxiolBO-17" value="No argument passing" style="edgeLabel;html=1;align=center;verticalAlign=middle;resizable=0;points=[];" vertex="1" connectable="0" parent="wyxHeaVbBhEu2jxiolBO-15">
          <mxGeometry x="-0.1948" y="-1" relative="1" as="geometry">
            <mxPoint x="14" y="-6" as="offset" />
          </mxGeometry>
        </mxCell>
        <mxCell id="wyxHeaVbBhEu2jxiolBO-18" value="Instruction Message &amp;amp; program reboot" style="shape=hexagon;perimeter=hexagonPerimeter2;whiteSpace=wrap;html=1;fixedSize=1;" vertex="1" parent="1">
          <mxGeometry x="510" y="140" width="156" height="40" as="geometry" />
        </mxCell>
      </root>
    </mxGraphModel>
  </diagram>
</mxfile>
